<?xml version="1.0" encoding="utf-8"?>
<!-- Generator: Adobe Illustrator 19.0.0, SVG Export Plug-In . SVG Version: 6.00 Build 0)  -->
<svg version="1.0" id="Layer_1" xmlns="http://www.w3.org/2000/svg" xmlns:xlink="http://www.w3.org/1999/xlink" x="0px" y="0px"
	 viewBox="0 0 38 38" enable-background="new 0 0 38 38" xml:space="preserve">
<path id="XMLID_1_" fill="#FDA340" d="M19,3c8.8,0,16,7.2,16,16s-7.2,16-16,16S3,27.8,3,19S10.2,3,19,3 M19,0C8.5,0,0,8.5,0,19
	s8.5,19,19,19s19-8.5,19-19S29.5,0,19,0L19,0z"/>
<polygon id="XMLID_4_" fill="#FDA340" points="19,21.6 15.7,25.8 11.4,25.8 16.9,19.4 11.4,12.3 15.7,12.3 19,17.1 22.3,12.3
	26.6,12.3 21.1,19.4 26.6,25.8 22.3,25.8 "/>
</svg>
