<?xml version="1.0" encoding="utf-8"?>
<!-- Generator: Adobe Illustrator 19.0.0, SVG Export Plug-In . SVG Version: 6.00 Build 0)  -->
<svg version="1.0" id="Isolation_Mode" xmlns="http://www.w3.org/2000/svg" xmlns:xlink="http://www.w3.org/1999/xlink" x="0px"
	 y="0px" viewBox="945 525 30 30" enable-background="new 945 525 30 30" xml:space="preserve">
<path fill="#FDA340" d="M969.4,525c1.5,0,2.9,0.6,4,1.7c1.1,1.1,1.7,2.4,1.7,4v18.8c0,1.5-0.6,2.9-1.7,4c-1.1,1.1-2.4,1.7-4,1.7
	h-3.7v-11.6h3.9l0.6-4.5h-4.5V536c0-0.7,0.2-1.3,0.5-1.6c0.3-0.4,0.9-0.5,1.8-0.5l2.4,0v-4c-0.8-0.1-2-0.2-3.5-0.2
	c-1.8,0-3.2,0.5-4.2,1.6c-1.1,1-1.6,2.5-1.6,4.4v3.3h-3.9v4.5h3.9V555h-10.4c-1.5,0-2.9-0.6-4-1.7s-1.7-2.4-1.7-4v-18.8
	c0-1.5,0.6-2.9,1.7-4s2.4-1.7,4-1.7H969.4z"/>
</svg>
