<?xml version="1.0" encoding="utf-8"?>
<!-- Generator: Adobe Illustrator 19.0.0, SVG Export Plug-In . SVG Version: 6.00 Build 0)  -->
<svg version="1.0" id="Isolation_Mode" xmlns="http://www.w3.org/2000/svg" xmlns:xlink="http://www.w3.org/1999/xlink" x="0px"
	 y="0px" viewBox="125.8 343.4 30 30" enable-background="new 125.8 343.4 30 30" xml:space="preserve">
<path fill="#FDA340" d="M155.8,358.4c0,3,0,5-0.1,6.2c-0.1,2.7-0.9,4.8-2.4,6.3c-1.5,1.5-3.6,2.3-6.3,2.4c-1.1,0.1-3.2,0.1-6.2,0.1
	c-3,0-5,0-6.2-0.1c-2.7-0.1-4.8-0.9-6.3-2.4c-1.5-1.5-2.3-3.6-2.4-6.3c-0.1-1.1-0.1-3.2-0.1-6.2c0-3,0-5,0.1-6.2
	c0.1-2.7,0.9-4.8,2.4-6.3c1.5-1.5,3.6-2.3,6.3-2.4c1.1-0.1,3.2-0.1,6.2-0.1c3,0,5,0,6.2,0.1c2.7,0.1,4.8,0.9,6.3,2.4
	c1.5,1.5,2.3,3.6,2.4,6.3C155.8,353.3,155.8,355.4,155.8,358.4z M142.3,346c-0.9,0-1.4,0-1.5,0c-0.1,0-0.6,0-1.5,0
	c-0.9,0-1.6,0-2.1,0c-0.5,0-1.1,0-1.9,0.1c-0.8,0-1.5,0.1-2,0.2c-0.6,0.1-1,0.2-1.4,0.4c-0.7,0.3-1.2,0.6-1.7,1.1
	c-0.5,0.5-0.9,1.1-1.1,1.7c-0.1,0.4-0.3,0.8-0.4,1.4c-0.1,0.6-0.2,1.2-0.2,2c0,0.8-0.1,1.4-0.1,1.9c0,0.5,0,1.2,0,2.1
	c0,0.9,0,1.4,0,1.5c0,0.1,0,0.6,0,1.5c0,0.9,0,1.6,0,2.1c0,0.5,0,1.1,0.1,1.9c0,0.8,0.1,1.5,0.2,2c0.1,0.6,0.2,1,0.4,1.4
	c0.3,0.7,0.6,1.2,1.1,1.7c0.5,0.5,1.1,0.9,1.7,1.1c0.4,0.1,0.8,0.3,1.4,0.4c0.6,0.1,1.2,0.2,2,0.2c0.8,0,1.4,0.1,1.9,0.1
	c0.5,0,1.2,0,2.1,0c0.9,0,1.4,0,1.5,0c0.1,0,0.6,0,1.5,0c0.9,0,1.6,0,2.1,0c0.5,0,1.1,0,1.9-0.1c0.8,0,1.5-0.1,2-0.2
	c0.6-0.1,1-0.2,1.4-0.4c0.7-0.3,1.2-0.6,1.7-1.1c0.5-0.5,0.9-1.1,1.1-1.7c0.1-0.4,0.3-0.8,0.4-1.4c0.1-0.6,0.2-1.2,0.2-2
	c0-0.8,0.1-1.4,0.1-1.9c0-0.5,0-1.2,0-2.1c0-0.9,0-1.4,0-1.5c0-0.1,0-0.6,0-1.5c0-0.9,0-1.6,0-2.1c0-0.5,0-1.1-0.1-1.9
	c0-0.8-0.1-1.5-0.2-2c-0.1-0.6-0.2-1-0.4-1.4c-0.3-0.7-0.6-1.2-1.1-1.7c-0.5-0.5-1.1-0.9-1.7-1.1c-0.4-0.1-0.8-0.3-1.4-0.4
	c-0.6-0.1-1.2-0.2-2-0.2c-0.8,0-1.4-0.1-1.9-0.1C143.9,346,143.2,346,142.3,346z M146.2,352.9c1.5,1.5,2.2,3.3,2.2,5.4
	c0,2.1-0.7,4-2.2,5.4c-1.5,1.5-3.3,2.2-5.4,2.2c-2.1,0-4-0.7-5.4-2.2c-1.5-1.5-2.2-3.3-2.2-5.4c0-2.1,0.7-4,2.2-5.4
	c1.5-1.5,3.3-2.2,5.4-2.2C142.9,350.7,144.7,351.4,146.2,352.9z M144.3,361.9c1-1,1.5-2.2,1.5-3.5c0-1.4-0.5-2.6-1.5-3.5
	c-1-1-2.2-1.5-3.5-1.5c-1.4,0-2.6,0.5-3.5,1.5c-1,1-1.5,2.2-1.5,3.5c0,1.4,0.5,2.6,1.5,3.5c1,1,2.2,1.5,3.5,1.5
	C142.2,363.4,143.4,362.9,144.3,361.9z M150.1,349.1c0.4,0.4,0.5,0.8,0.5,1.3c0,0.5-0.2,0.9-0.5,1.3c-0.4,0.4-0.8,0.5-1.3,0.5
	c-0.5,0-0.9-0.2-1.3-0.5c-0.4-0.4-0.5-0.8-0.5-1.3c0-0.5,0.2-0.9,0.5-1.3c0.4-0.4,0.8-0.5,1.3-0.5
	C149.3,348.6,149.7,348.7,150.1,349.1z"/>
</svg>
