<?xml version="1.0" encoding="utf-8"?>
<!-- Generator: Adobe Illustrator 19.0.0, SVG Export Plug-In . SVG Version: 6.00 Build 0)  -->
<svg version="1.0" id="Isolation_Mode" xmlns="http://www.w3.org/2000/svg" xmlns:xlink="http://www.w3.org/1999/xlink" x="0px"
	 y="0px" viewBox="1064 403.8 141.4 38.1" enable-background="new 1064 403.8 141.4 38.1" xml:space="preserve">
<g>
	<path fill="#1E0F00" d="M1074.1,434.6h-4.5c-1.9,0-2.8-0.8-2.8-2.3v-14.6h-2.8v-2.3h2.8v-6h3.2v6h4.1v2.3h-4.1v14.6h4.1V434.6
		L1074.1,434.6z M1082.3,411.2h-3.3v-3.3h3.3V411.2L1082.3,411.2z M1082.2,434.6h-3.2v-19.2h3.2V434.6L1082.2,434.6z M1101.7,439.6
		c0,1.5-0.9,2.3-2.8,2.3h-7.5c-1.8,0-2.8-0.8-2.8-2.3c0-0.3,0-0.7,0-1.2c0-0.5,0-0.9,0-1.2h3.1v2.5h6.7v-5h-5.2
		c-1.4,0-2.6-0.4-3.6-1.2c-1-0.8-1.4-1.8-1.4-3v-11.1c0-1.1,0.4-2.1,1.3-2.9c0.8-0.8,2-1.1,3.3-1.1c0.4,0,2.3,0.2,5.7,0.6v-0.5h3.2
		V439.6L1101.7,439.6z M1098.5,432.3v-14.5c-2.6-0.1-4-0.2-4.5-0.2c-1.8,0-2.7,0.7-2.7,2.2v10.3c0,1.5,0.9,2.2,2.7,2.2H1098.5
		L1098.5,432.3z M1120.8,432.4c0,1.5-0.9,2.2-2.8,2.2h-7.5c-1.9,0-2.8-0.8-2.8-2.3v-14.6c0-1.5,0.9-2.3,2.8-2.3h7.5
		c1.9,0,2.8,0.8,2.8,2.3v6.8l-1.1,0.9h-8.9v6.9h6.9v-3.5h3.1V432.4L1120.8,432.4z M1117.7,423.4v-5.8h-6.9v5.8H1117.7L1117.7,423.4z
		 M1139,421.8h-3.2v-4l-5.9,0.2v16.7h-3.2v-19.2h3.2v0.5c1.1-0.1,2.1-0.3,3.2-0.4c1.3-0.2,2.4-0.2,3.2-0.2c1.8,0,2.7,0.8,2.7,2.3
		V421.8L1139,421.8z M1167.4,434.6h-3.2v-16.8l-7,0.2v16.6h-3.2v-16.8l-7,0.2v16.6h-3.2v-19.2h3.2v0.6c1.2-0.1,2.5-0.3,3.7-0.4
		c1.5-0.2,2.7-0.2,3.7-0.2c1.1,0,1.8,0.2,2.3,0.8c1.3-0.1,2.7-0.3,4-0.5c1.7-0.2,3-0.3,3.9-0.3c1.9,0,2.8,0.8,2.8,2.3V434.6
		L1167.4,434.6z M1176.7,411.2h-3.3v-3.3h3.3V411.2L1176.7,411.2z M1176.6,434.6h-3.2v-19.2h3.2V434.6L1176.6,434.6z M1186.1,434.6
		h-3.2v-30.8h3.2V434.6L1186.1,434.6z M1205.4,434.6h-3.5l-6.5-9.8v9.8h-3.2v-30.8h3.2v19.6l6-7.9h3.5v0.1l-6.8,8.5L1205.4,434.6
		L1205.4,434.6z"/>
</g>
</svg>
